<svg width="56" height="56" viewBox="0 0 56 56" fill="none" xmlns="http://www.w3.org/2000/svg">
<rect width="56" height="56" rx="10" fill="white"/>
<rect width="56" height="56" rx="10" fill="#4D4CAC" fill-opacity="0.1"/>
<path d="M32.5 25.0117V23.5H23.5V25.0117H32.5ZM29.5117 29.5117V28H23.5V29.5117H29.5117ZM23.5 25.75V27.2617H32.5V25.75H23.5ZM34.0117 20.5117C34.4102 20.5117 34.75 20.6641 35.0312 20.9688C35.3359 21.25 35.4883 21.5898 35.4883 21.9883V30.9883C35.4883 31.3867 35.3359 31.7383 35.0312 32.043C34.75 32.3477 34.4102 32.5 34.0117 32.5H23.5L20.5117 35.4883V21.9883C20.5117 21.5898 20.6523 21.25 20.9336 20.9688C21.2383 20.6641 21.5898 20.5117 21.9883 20.5117H34.0117Z" fill="#6B59CC"/>
</svg>
