<svg width="56" height="56" viewBox="0 0 56 56" fill="none" xmlns="http://www.w3.org/2000/svg">
<rect width="56" height="56" rx="10" fill="white"/>
<rect width="56" height="56" rx="10" fill="#4D4CAC" fill-opacity="0.1"/>
<path d="M26.2773 30.3555C27.6602 29.793 28.9844 29.5117 30.25 29.5117C31.5156 29.5117 32.8281 29.793 34.1875 30.3555C35.5703 30.8945 36.2617 31.6094 36.2617 32.5V34.0117H24.2383V32.5C24.2383 31.6094 24.918 30.8945 26.2773 30.3555ZM23.5 26.4883H25.75V28H23.5V30.25H21.9883V28H19.7383V26.4883H21.9883V24.2383H23.5V26.4883ZM32.3594 27.1211C31.7734 27.707 31.0703 28 30.25 28C29.4297 28 28.7266 27.707 28.1406 27.1211C27.5547 26.5352 27.2617 25.832 27.2617 25.0117C27.2617 24.1914 27.5547 23.4883 28.1406 22.9023C28.7266 22.293 29.4297 21.9883 30.25 21.9883C31.0703 21.9883 31.7734 22.293 32.3594 22.9023C32.9453 23.4883 33.2383 24.1914 33.2383 25.0117C33.2383 25.832 32.9453 26.5352 32.3594 27.1211Z" fill="#6B59CC"/>
</svg>
