<?xml version="1.0"?>
<svg xmlns="http://www.w3.org/2000/svg" xmlns:xlink="http://www.w3.org/1999/xlink" xmlns:svgjs="http://svgjs.com/svgjs" version="1.1" width="512" height="512" x="0" y="0" viewBox="0 0 488.569 488.569" style="enable-background:new 0 0 512 512" xml:space="preserve" class=""><g>
<g xmlns="http://www.w3.org/2000/svg">
	<path d="M244.273,77.626c-113.474,0-205.478,68.197-205.478,107.294c0,39.104,92.004,303.648,205.478,303.648   c113.476,0,205.495-264.544,205.495-303.648C449.768,145.824,357.748,77.626,244.273,77.626z M354.434,241.411L237.583,358.262   c-4.438,4.439-10.466,6.937-16.738,6.937c-6.273,0-12.3-2.498-16.739-6.937l-57.431-57.439c-9.249-9.248-9.249-24.237,0-33.479   c9.248-9.247,24.23-9.247,33.478,0l40.692,40.693l100.11-100.104c9.249-9.249,24.23-9.249,33.478,0   C363.683,217.173,363.683,232.171,354.434,241.411z" fill="#1c6ce3" data-original="#000000" style="" class=""/>
	<path d="M469.236,73.996c-126.146-98.653-323.795-98.669-449.908,0c-10.312,8.062-12.115,22.937-4.069,33.24   c8.061,10.289,22.967,12.107,33.232,4.061c109.822-85.885,281.791-85.869,391.582,0c4.33,3.384,9.463,5.025,14.566,5.025   c7.028,0,13.995-3.122,18.665-9.086C481.365,96.932,479.547,82.058,469.236,73.996z" fill="#1c6ce3" data-original="#000000" style="" class=""/>
</g>
</g></svg>
